<svg xmlns="http://www.w3.org/2000/svg" viewBox="0 0 500.429 216"><g data-name="Inception Program"><path d="M29.492 29.398h441.446v157.204H29.492z" style="fill:#fff"/><path d="M25.5 25.405v165.19h449.43V25.405H25.5Zm445.438 161.197H29.492V29.398h441.446v157.204Zm-247.796-12.21h-1.997V41.608h1.997v132.784Zm35.002-75.228h-4.098V74.23h4.098v24.933Zm17.95-10.721c0-1.496-.32-2.642-.962-3.439-.641-.794-1.615-1.192-2.92-1.192h-.25a4.43 4.43 0 0 0-2.174.57c-.688.38-1.246.96-1.673 1.745-.427.783-.64 1.78-.64 2.992v10.045h-3.92V80.926h3.456v2.743a6.376 6.376 0 0 1 2.333-2.368c.986-.582 2.155-.873 3.508-.873h.357c2.067 0 3.715.641 4.95 1.923 1.235 1.283 1.854 3.135 1.854 5.556v11.257h-3.92V88.443Zm9.848 8.85c-1.554-1.554-2.333-3.78-2.333-6.678V89.44c0-1.9.362-3.52 1.087-4.863.724-1.341 1.74-2.367 3.046-3.08 1.306-.712 2.814-1.07 4.524-1.07h.356c1.685 0 3.115.405 4.292 1.212a6.843 6.843 0 0 1 2.546 3.205l-3.133 1.39c-.358-.735-.839-1.324-1.444-1.763-.605-.439-1.359-.66-2.261-.66h-.321c-1.401 0-2.547.465-3.436 1.39-.891.926-1.336 2.316-1.336 4.167v1.319c0 1.923.433 3.335 1.299 4.238.868.903 2.023 1.353 3.473 1.353h.32c.95 0 1.746-.207 2.388-.622a4.24 4.24 0 0 0 1.496-1.693l3.063 1.604c-.524 1.186-1.39 2.16-2.601 2.92-1.21.76-2.66 1.14-4.345 1.14h-.356c-2.661 0-4.768-.778-6.324-2.334Zm24.596 2.334h.534c1.687 0 3.146-.315 4.381-.945 1.235-.628 2.173-1.49 2.814-2.582l-2.849-1.851c-.427.736-.991 1.287-1.693 1.656-.7.367-1.584.55-2.653.55h-.534c-1.401 0-2.499-.438-3.295-1.315-.794-.88-1.227-2.21-1.299-3.992h12.928v-2.172c0-2.611-.717-4.689-2.155-6.233-1.436-1.542-3.388-2.315-5.858-2.315h-.32c-2.589 0-4.643.802-6.162 2.404-1.521 1.604-2.28 3.817-2.28 6.643v1.175c0 2.874.741 5.089 2.226 6.643 1.484 1.556 3.556 2.334 6.215 2.334Zm-3.152-14.783c.796-.806 1.846-1.21 3.152-1.21h.284c1.33 0 2.37.387 3.118 1.158.748.77 1.123 1.894 1.123 3.365v.249h-9.084c.143-1.567.61-2.754 1.407-3.562Zm24.843 14.783c1.496 0 2.826-.346 3.99-1.034s2.083-1.702 2.76-3.046c.676-1.34 1.014-2.972 1.014-4.897v-1.175c0-1.946-.338-3.591-1.015-4.933-.676-1.34-1.596-2.363-2.76-3.063s-2.493-1.051-3.989-1.051h-.214c-1.401 0-2.606.28-3.614.837a6.043 6.043 0 0 0-2.37 2.332v-2.67h-3.456v25.36h3.92v-9.261a5.927 5.927 0 0 0 2.296 1.923c.937.452 2.012.678 3.224.678h.214Zm-1.177-3.349a4.59 4.59 0 0 1-2.244-.588c-.71-.392-1.287-1.008-1.726-1.851-.44-.843-.659-1.929-.659-3.259v-1.105c0-1.353.219-2.445.66-3.276.438-.831 1.008-1.436 1.708-1.817a4.67 4.67 0 0 1 2.261-.57h.286c1.353 0 2.482.452 3.385 1.353.9.902 1.352 2.329 1.352 4.275v1.21c0 1.948-.452 3.372-1.352 4.275-.903.903-2.032 1.353-3.385 1.353h-.286Zm14-12.11h-3.849v-3.242h3.848v-5.379h3.918v5.38h5.949l-.464 3.24h-5.485v9.013c0 1.02.237 1.75.713 2.19.473.44 1.187.659 2.136.659h3.1v3.312h-3.49c-2.305 0-3.944-.516-4.918-1.55-.974-1.032-1.459-2.51-1.459-4.433v-9.19Zm13.32-10.578h4.06v4.095h-4.06V73.59Zm.071 7.336h3.92v18.238h-3.92V80.926Zm11.95 17.65c1.295.7 2.76 1.051 4.399 1.051h.32c1.64 0 3.11-.351 4.417-1.051s2.333-1.728 3.08-3.08c.749-1.356 1.124-2.981 1.124-4.88V89.44c0-1.9-.375-3.52-1.123-4.863-.748-1.341-1.774-2.367-3.08-3.08-1.307-.712-2.778-1.07-4.417-1.07h-.321c-1.639 0-3.104.358-4.399 1.07-1.295.713-2.321 1.739-3.08 3.08-.76 1.343-1.141 2.975-1.141 4.898v1.14c0 1.9.38 3.525 1.14 4.88.76 1.353 1.786 2.381 3.081 3.081Zm-.301-9.208c0-1.874.45-3.27 1.353-4.184s2.017-1.372 3.347-1.372h.286c1.353 0 2.48.458 3.382 1.372.903.914 1.355 2.31 1.355 4.184v1.319c0 1.876-.452 3.276-1.355 4.201-.902.928-2.029 1.39-3.382 1.39h-.286c-1.33 0-2.445-.462-3.347-1.39-.903-.925-1.353-2.325-1.353-4.201v-1.319Zm33.944-1.46v11.256h-3.92V88.443c0-1.496-.318-2.642-.96-3.439-.642-.794-1.616-1.192-2.92-1.192h-.25c-.761 0-1.484.19-2.174.57-.688.38-1.247.96-1.674 1.745-.427.783-.64 1.78-.64 2.992v10.045h-3.919V80.926h3.456v2.743c.57-.997 1.347-1.786 2.333-2.368s2.155-.873 3.507-.873h.358c2.066 0 3.715.641 4.95 1.923 1.235 1.283 1.853 3.135 1.853 5.556Zm-134.174 23.994c-1.639-1.364-3.871-2.047-6.697-2.047h-9.119v24.933h4.098v-8.763h5.021c2.826 0 5.058-.671 6.697-2.012 1.639-1.342 2.456-3.247 2.456-5.717v-.748c0-2.399-.817-4.28-2.456-5.646Zm-1.639 6.502c0 1.424-.47 2.47-1.407 3.133-.937.665-2.19.997-3.757.997h-4.915v-9.153h4.915c1.567 0 2.82.332 3.757.997s1.407 1.699 1.407 3.098v.928Zm16.134-2.066h1.854v3.631h-1.817c-.856 0-1.656.192-2.404.57-.748.381-1.355.98-1.817 1.8-.464.82-.694 1.906-.694 3.259v9.19h-3.92V116.55h3.456v3.456c.45-1.115 1.087-2.006 1.906-2.67.82-.666 1.964-.998 3.436-.998Zm16.707.783c-1.307-.712-2.777-1.07-4.416-1.07h-.321c-1.64 0-3.104.358-4.399 1.07-1.295.713-2.321 1.74-3.08 3.08-.76 1.344-1.141 2.975-1.141 4.898v1.14c0 1.9.38 3.526 1.14 4.88.76 1.353 1.786 2.382 3.081 3.081s2.76 1.052 4.399 1.052h.32c1.64 0 3.11-.352 4.417-1.052s2.333-1.728 3.08-3.08c.749-1.355 1.124-2.98 1.124-4.88v-1.176c0-1.9-.375-3.52-1.123-4.863-.748-1.34-1.774-2.367-3.081-3.08Zm.286 9.19c0 1.876-.452 3.276-1.355 4.202-.902.927-2.03 1.39-3.382 1.39h-.286c-1.33 0-2.445-.463-3.348-1.39-.902-.926-1.353-2.326-1.353-4.202v-1.318c0-1.875.45-3.27 1.353-4.185.903-.914 2.018-1.372 3.348-1.372h.286c1.353 0 2.48.458 3.382 1.372.903.914 1.355 2.31 1.355 4.185v1.318Zm20.729-7.053c-1.189-2.137-3.184-3.206-5.986-3.206h-.25c-1.542 0-2.897.369-4.058 1.105-1.166.737-2.066 1.769-2.708 3.099-.642 1.33-.962 2.873-.962 4.63v.96c0 1.76.32 3.302.962 4.632.642 1.33 1.542 2.363 2.708 3.098 1.161.736 2.516 1.105 4.059 1.105h.249c2.424 0 4.252-.867 5.487-2.601v1.888c0 3.442-1.521 5.164-4.56 5.164h-.463c-1.164 0-2.095-.172-2.797-.516-.7-.344-1.287-.908-1.762-1.69l-2.815 2.1a6.399 6.399 0 0 0 2.76 2.53c1.177.568 2.666.854 4.47.854h.749c2.684 0 4.748-.742 6.198-2.226 1.448-1.484 2.172-3.591 2.172-6.322V116.55h-3.453v2.708Zm-.43 6.554c0 1.662-.42 2.998-1.263 4.007s-1.966 1.513-3.365 1.513h-.321c-1.45 0-2.59-.491-3.42-1.477-.832-.985-1.246-2.32-1.246-4.008v-.997c0-1.686.414-3.01 1.247-3.972.829-.96 1.97-1.442 3.419-1.442h.32c1.4 0 2.523.493 3.366 1.479s1.264 2.32 1.264 4.006v.891Zm17.49-9.474h1.853v3.631h-1.816c-.857 0-1.657.192-2.405.57-.748.381-1.355.98-1.816 1.8-.464.82-.694 1.906-.694 3.259v9.19h-3.92V116.55h3.456v3.456c.45-1.115 1.086-2.006 1.905-2.67.82-.666 1.964-.998 3.437-.998Zm11.683-.286h-.535c-1.78 0-3.294.363-4.54 1.086-1.247.725-2.144 1.716-2.69 2.974l3.028 1.568c.427-.878.978-1.502 1.656-1.869.677-.37 1.525-.553 2.546-.553h.392c2.422 0 3.634 1.353 3.634 4.06v.144l-6.448.854c-1.805.238-3.175.831-4.113 1.78-.939.951-1.407 2.173-1.407 3.669 0 1.733.534 3.082 1.603 4.043 1.068.962 2.576 1.444 4.522 1.444h.25c1.354 0 2.564-.292 3.633-.874 1.069-.582 1.877-1.37 2.422-2.368v2.778h3.455v-11.54c0-2.35-.63-4.139-1.888-5.362-1.258-1.222-3.098-1.834-5.52-1.834Zm3.49 11.29c0 1.45-.415 2.608-1.246 3.474-.83.868-1.948 1.3-3.35 1.3h-.355c-1.02 0-1.81-.231-2.368-.695-.558-.462-.836-1.098-.836-1.906 0-.806.241-1.4.728-1.78.487-.379 1.347-.653 2.582-.82l4.846-.71v1.138Zm34.212-9.367c1.152 1.283 1.728 3.135 1.728 5.556v11.257h-3.918v-10.721c0-1.496-.28-2.642-.837-3.439-.558-.794-1.443-1.192-2.653-1.192h-.286c-.665 0-1.313.19-1.94.57-.63.38-1.141.96-1.533 1.745-.39.783-.588 1.78-.588 2.992v10.045h-3.918v-10.721c0-1.496-.28-2.642-.836-3.438-.56-.795-1.444-1.193-2.654-1.193h-.286c-.665 0-1.312.19-1.94.57-.63.38-1.141.96-1.531 1.745-.393.783-.588 1.78-.588 2.992v10.045h-3.92V116.55h3.456v2.708c.545-.997 1.276-1.782 2.19-2.35.914-.57 1.989-.856 3.224-.856h.32c2.755 0 4.655 1.129 5.7 3.384a6.506 6.506 0 0 1 2.333-2.476c.986-.605 2.13-.908 3.436-.908h.321c1.995 0 3.568.641 4.72 1.923Z"/><g data-name="NVIDIA Logo"><path d="m111.212 135.046.003 25.324h7.151v-25.324h-7.154Zm-56.262-.034v25.358h7.215v-19.255l5.59.002c1.852 0 3.17.46 4.063 1.413 1.131 1.205 1.593 3.149 1.593 6.705v11.135l6.99-.001.001-14.01c0-9.999-6.374-11.347-12.61-11.347H54.95m67.778.035v25.323h11.6c6.18 0 8.198-1.028 10.38-3.332 1.542-1.618 2.538-5.17 2.538-9.051 0-3.56-.843-6.735-2.315-8.713-2.65-3.536-6.467-4.227-12.165-4.227h-10.038Zm7.094 5.514h3.075c4.462 0 7.347 2.003 7.347 7.201 0 5.2-2.885 7.203-7.347 7.203h-3.075v-14.404Zm-28.922-5.514-5.969 20.07-5.72-20.069-7.72-.001 8.169 25.323h10.308l8.232-25.323h-7.3Zm49.674 25.323h7.153v-25.322l-7.154-.001.001 25.323Zm20.05-25.314-9.987 25.306h7.052l1.58-4.473h11.82l1.495 4.473h7.657l-10.064-25.308-9.553.002Zm4.642 4.617 4.333 11.855h-8.802l4.47-11.855Z"/><path d="M101.757 75.727v-6.084a45.06 45.06 0 0 1 1.795-.093c16.639-.523 27.556 14.298 27.556 14.298s-11.79 16.376-24.433 16.376c-1.82 0-3.45-.294-4.918-.787V80.99c6.477.782 7.78 3.644 11.675 10.135l8.661-7.303s-6.322-8.292-16.98-8.292a31.4 31.4 0 0 0-3.356.198m0-20.097v9.087a42.075 42.075 0 0 1 1.795-.107c23.14-.78 38.214 18.977 38.214 18.977s-17.316 21.056-35.355 21.056c-1.653 0-3.2-.152-4.654-.41v5.617c1.243.158 2.531.252 3.876.252 16.787 0 28.928-8.573 40.684-18.72 1.947 1.56 9.927 5.357 11.568 7.021-11.178 9.357-37.226 16.899-51.994 16.899-1.423 0-2.792-.086-4.134-.215v7.894h63.805V55.63h-63.805Zm0 43.807v4.796C86.23 101.465 81.92 85.325 81.92 85.325s7.455-8.26 19.837-9.598v5.262c-.01 0-.016-.003-.025-.003-6.497-.78-11.573 5.29-11.573 5.29s2.844 10.22 11.598 13.161M74.179 84.626s9.203-13.58 27.578-14.983v-4.926C81.404 66.35 63.78 83.587 63.78 83.587s9.982 28.858 37.977 31.5v-5.237c-20.544-2.584-27.578-25.224-27.578-25.224Z" data-name="Eye Mark" style="fill:#76b900"/></g></g></svg>